# Blender 3.3.1
# www.blender.org
mtllib Aquelarre.mtl
o Cuadro_Aquelarre
v -15.000015 20.599998 0.117923
v -15.000015 -20.600014 0.117916
v 14.999985 -20.600014 0.117916
v 14.999985 20.599998 0.117923
v -15.000015 20.599998 -0.882077
v -15.000015 -20.600014 -0.882084
v 14.999985 -20.600014 -0.500003
v 14.999985 20.599998 -0.882077
vn -0.0000 -0.0000 1.0000
vn -1.0000 -0.0000 -0.0000
vn -0.0000 -1.0000 -0.0000
vn 1.0000 -0.0000 -0.0000
vn -0.0000 1.0000 -0.0000
vt 0.000000 1.000001
vt 0.002105 1.000198
vt -0.000562 0.999519
vt 0.000000 0.000000
vt 0.002105 0.000000
vt 1.001142 0.023295
vt 1.000036 0.000000
vt -0.002137 0.023295
vt 0.975688 -0.000240
vt 1.000036 1.000001
vt 0.975688 0.999913
vt 1.000010 0.999519
vt 0.019010 1.000198
vt -0.000562 0.976461
vt 0.019010 0.000000
vt 1.001142 0.000105
vt -0.002137 0.000105
vt 0.999964 -0.000240
vt 0.999964 0.999913
vt 1.000010 0.976461
s 0
usemtl FrontColor
f 1/1/1 2/4/1 3/7/1 4/10/1
f 5/13/2 6/15/2 2/5/2 1/2/2
f 6/16/3 7/17/3 3/8/3 2/6/3
f 7/18/4 8/19/4 4/11/4 3/9/4
f 8/20/5 5/14/5 1/3/5 4/12/5
o Marco_Dorado_01_Aquelarre
v 18.199966 23.800003 0.299992
v 18.199966 23.800003 -0.700008
v -18.200027 23.800003 -0.700008
v -18.200027 23.800003 0.299992
v 18.199966 -23.800003 -0.700016
v 18.199966 -23.800003 0.299984
v 14.999969 20.600006 0.299991
v 14.999969 -20.600006 0.299984
v -15.000031 20.600006 0.299991
v -15.000031 20.600006 0.099979
v 14.999969 20.600006 0.099979
v -15.000031 -20.600006 0.299984
v -15.000031 -20.600006 0.099972
v -18.200027 -23.800003 0.299984
v -18.200027 -23.800003 -0.700016
v 14.999969 -20.600006 0.099972
vn -0.0000 1.0000 -0.0000
vn 1.0000 -0.0000 -0.0000
vn -0.0000 -0.0000 1.0000
vn -0.0000 -1.0000 -0.0000
vn -1.0000 -0.0000 -0.0000
vt 0.511247 0.315100
vt 0.396850 0.941291
vt 0.996622 0.998149
vt 0.997898 0.997753
vt 0.614798 0.314320
vt 0.514173 0.941291
vt 0.593243 0.943330
vt 0.400253 0.942242
vt 0.505554 0.942882
vt 0.995321 0.261100
vt 0.003543 0.999655
vt 0.506946 0.942242
vt 0.494945 0.058210
vt 0.499656 0.058999
vt 0.386586 0.056937
vt 0.997242 0.259338
vt 0.392512 0.059548
vt 0.996787 0.997390
vt 0.501730 0.940954
vt 0.505955 0.941910
vt 0.384557 0.718445
vt 0.478296 0.701771
vt 0.511394 0.313961
vt 0.501160 0.941238
vt 0.477831 0.942230
vt 0.478296 0.159224
vt 0.507393 0.315113
vt 0.384558 0.069162
vt 0.410714 0.795318
vt 0.502525 0.942916
vt 0.462723 0.069162
vt 0.489454 0.795318
vt 0.462722 0.718445
vt 0.399556 0.701771
vt 0.410714 0.082042
vt 0.478408 0.058118
vt 0.497745 0.317351
vt 0.477830 0.057838
vt 0.489454 0.082042
vt 0.404998 0.057838
vt 0.000000 0.000000
vt 0.483720 0.060202
vt 0.406250 0.943532
vt 0.998879 0.259566
vt 0.390653 0.060202
vt 0.510626 0.941307
vt 0.404999 0.942230
vt 0.399556 0.159224
s 0
usemtl Material.001
f 9/21/6 10/25/6 11/27/6 12/29/6
f 13/33/7 10/26/7 9/22/7 14/35/7
f 9/23/8 15/39/8 16/43/8 14/36/8
f 17/47/8 15/40/8 9/24/8 12/30/8
f 15/41/9 17/48/9 18/51/9 19/53/9
f 17/49/7 20/55/7 21/59/7 18/52/7
f 20/56/8 17/50/8 12/31/8 22/61/8
f 11/28/10 23/65/10 22/62/10 12/32/10
f 23/66/9 13/34/9 14/37/9 22/63/9
f 22/64/8 14/38/8 16/44/8 20/57/8
f 20/58/6 16/45/6 24/67/6 21/60/6
f 16/46/10 15/42/10 19/54/10 24/68/10
