# Blender 3.3.1
# www.blender.org
o Asmodea
v 13.634054 21.299328 49.445595
v 13.634054 9.122375 49.445595
v 13.634054 9.122375 49.346596
v 13.634054 21.299328 49.346596
v -12.607285 9.122386 49.445595
v -12.607285 9.122386 49.346596
v -12.607285 21.299427 49.445595
v -12.607285 21.299427 49.346596
vn 1.0000 -0.0000 -0.0000
vn -0.0000 -1.0000 -0.0000
vn -1.0000 -0.0000 -0.0000
vn -0.0000 1.0000 -0.0000
vn -0.0000 -0.0000 -1.0000
vt 0.000048 0.999920
vt 0.000036 0.000112
vt 0.000036 0.000112
vt 0.003753 0.000144
vt 0.000050 0.003786
vt 0.003761 0.999927
vt 0.000043 0.996271
vt 0.000048 0.999920
vt 0.999958 0.000076
vt 0.999954 0.008610
vt 0.996210 0.000136
vt 0.999958 0.000076
vt 0.999942 0.999878
vt 0.996241 0.999893
vt 0.999940 0.996185
vt 0.999942 0.999878
s 0
f 2/2/1 4/6/1 1/1/1
f 5/9/2 3/5/2 2/2/2
f 7/13/3 6/11/3 5/9/3
f 1/1/4 8/15/4 7/13/4
f 6/12/5 4/8/5 3/3/5
f 2/2/1 3/4/1 4/6/1
f 5/9/2 6/10/2 3/5/2
f 7/13/3 8/14/3 6/11/3
f 1/1/4 4/7/4 8/15/4
f 6/12/5 8/16/5 4/8/5
