# Blender 3.3.1
# www.blender.org
o 12.perro_semihundido
v 4.866322 2.149249 -2.441249
v 4.081063 2.149249 -2.441249
v 4.081063 0.847396 -2.441249
v 4.866322 0.847396 -2.441249
v 4.866322 2.149249 -2.451149
v 4.081063 2.149249 -2.451149
v 4.081063 0.847396 -2.451149
v 4.866322 0.847396 -2.451149
vn -0.0000 -0.0000 1.0000
vn -0.0000 1.0000 -0.0000
vn -1.0000 -0.0000 -0.0000
vn -0.0000 -1.0000 -0.0000
vn 1.0000 -0.0000 -0.0000
vt 0.999875 0.999957
vt 0.999892 0.992600
vt 0.992490 0.999978
vt 0.000227 0.999929
vt 0.000217 0.992555
vt 0.007578 0.999936
vt 0.000258 0.000183
vt 0.007619 0.000172
vt 0.000250 0.007563
vt 0.999760 0.000118
vt 0.999764 0.007494
vt 0.992371 0.000134
vt 0.999875 0.999957
vt 0.000227 0.999929
vt 0.000258 0.000183
vt 0.999760 0.000118
s 0
f 2/4/1 4/10/1 1/1/1
f 6/14/2 1/2/2 5/13/2
f 7/15/3 2/6/3 6/14/3
f 8/16/4 3/9/4 7/15/4
f 5/13/5 4/12/5 8/16/5
f 2/4/1 3/7/1 4/10/1
f 6/14/2 2/5/2 1/2/2
f 7/15/3 3/8/3 2/6/3
f 8/16/4 4/11/4 3/9/4
f 5/13/5 1/3/5 4/12/5
