# Blender 3.3.1
# www.blender.org
o Saturno_devorando_a_un_hijo
v 83.614311 7.881629 49.346596
v 83.614311 22.335659 49.346596
v 91.833786 22.335659 49.346596
v 91.833786 7.881619 49.346596
v 83.614311 7.881629 49.445595
v 83.614311 22.335659 49.445595
v 91.833786 22.335659 49.445595
v 91.833786 7.881619 49.445595
vn -0.0000 -0.0000 -1.0000
vn -1.0000 -0.0000 -0.0000
vn -0.0000 1.0000 -0.0000
vn 1.0000 -0.0000 -0.0000
vn -0.0000 -1.0000 -0.0000
vt 0.999772 0.000113
vt 0.993039 0.000110
vt 0.999790 0.006827
vt 0.999782 0.999886
vt 0.992994 0.999831
vt 0.000261 0.999835
vt 0.000261 0.999835
vt 0.999782 0.999886
vt 0.006967 0.999823
vt 0.000338 0.000225
vt 0.007099 0.000264
vt 0.000421 0.006900
vt 0.999772 0.000113
vt 0.000268 0.993113
vt 0.999782 0.999886
vt 0.000261 0.999835
vt 0.999774 0.993227
vt 0.000338 0.000225
s 0
f 1/1/1 3/7/1 4/10/1
f 6/15/2 1/2/2 5/13/2
f 7/17/3 2/6/3 6/14/3
f 8/18/4 3/9/4 7/16/4
f 5/13/5 4/12/5 8/18/5
f 1/1/1 2/4/1 3/7/1
f 6/15/2 2/5/2 1/2/2
f 7/17/3 3/8/3 2/6/3
f 8/18/4 4/11/4 3/9/4
f 5/13/5 1/3/5 4/12/5
