# Blender 3.3.1
# www.blender.org
o 14.una_manola_donya_leocadia_zorrilla
v 3.253679 0.742720 -2.441249
v 3.253679 2.202967 -2.441249
v 1.972311 2.202967 -2.441249
v 1.972311 0.742720 -2.441249
v 3.253679 0.742720 -2.451149
v 3.253679 2.202967 -2.451149
v 1.972311 2.202967 -2.451149
v 1.972311 0.742720 -2.451149
vn -0.0000 -0.0000 1.0000
vn 1.0000 -0.0000 -0.0000
vn -0.0000 1.0000 -0.0000
vn -1.0000 -0.0000 -0.0000
vn -0.0000 -1.0000 -0.0000
vt 0.999964 0.000026
vt 0.993348 0.000065
vt 0.000181 0.000239
vt 0.999789 0.999793
vt 0.993173 0.999832
vt 0.999814 0.993204
vt 0.000054 0.999933
vt 0.000056 0.993333
vt 0.006651 0.999946
vt 0.000181 0.000239
vt 0.006782 0.000241
vt 0.999964 0.000026
vt 0.999964 0.000026
vt 0.000162 0.006840
vt 0.999773 0.999776
vt 0.000054 0.999933
vt 0.999965 0.006624
vt 0.000181 0.000239
s 0
f 2/4/1 4/10/1 1/1/1
f 6/15/2 1/2/2 5/13/2
f 7/16/3 2/6/3 6/15/3
f 8/18/4 3/9/4 7/16/4
f 5/14/5 4/12/5 8/17/5
f 2/4/1 3/7/1 4/10/1
f 6/15/2 2/5/2 1/2/2
f 7/16/3 3/8/3 2/6/3
f 8/18/4 4/11/4 3/9/4
f 5/14/5 1/3/5 4/12/5
