# Blender 3.3.1
# www.blender.org
o 2.atropos_las_parcas
v 3.417874 2.119852 -6.399220
v 3.417874 0.902150 -6.399220
v 6.051918 0.902151 -6.399220
v 6.051918 2.119852 -6.399220
v 3.417874 2.119852 -6.409120
v 3.417874 0.902150 -6.409120
v 6.051918 0.902151 -6.409120
v 6.051918 2.119852 -6.409120
vn -0.0000 -0.0000 1.0000
vn -1.0000 -0.0000 -0.0000
vn -0.0000 -1.0000 -0.0000
vn 1.0000 -0.0000 -0.0000
vn -0.0000 1.0000 -0.0000
vt 0.000061 0.999789
vt 0.003752 0.999778
vt 0.000062 0.996108
vt 0.000041 0.000108
vt 0.003737 0.000102
vt 0.000042 0.003814
vt 0.999937 0.000149
vt 0.999938 0.003865
vt 0.996247 0.000150
vt 0.999917 0.999773
vt 0.996227 0.999778
vt 0.999915 0.996063
vt 0.000061 0.999789
vt 0.000041 0.000108
vt 0.999937 0.000149
vt 0.999917 0.999773
s 0
f 1/1/1 3/7/1 4/10/1
f 6/14/2 1/2/2 5/13/2
f 7/15/3 2/6/3 6/14/3
f 8/16/4 3/9/4 7/15/4
f 5/13/5 4/12/5 8/16/5
f 1/1/1 2/4/1 3/7/1
f 6/14/2 2/5/2 1/2/2
f 7/15/3 3/8/3 2/6/3
f 8/16/4 4/11/4 3/9/4
f 5/13/5 1/3/5 4/12/5
