# Blender 3.3.1
# www.blender.org
o Dos_viejos_comiendo_sopa
v 6.270522 17.060356 -24.412493
v 6.270522 12.179656 -24.412493
v 14.529107 12.179656 -24.412493
v 14.529107 17.060356 -24.412493
v 6.270522 17.060356 -24.511492
v 6.270522 12.179656 -24.511492
v 14.529107 12.179656 -24.511492
v 14.529107 17.060356 -24.511492
vn -0.0000 -0.0000 1.0000
vn -1.0000 -0.0000 -0.0000
vn -0.0000 -1.0000 -0.0000
vn 1.0000 -0.0000 -0.0000
vn -0.0000 1.0000 -0.0000
vt 0.000296 0.999450
vt 0.011816 0.999430
vt 0.000317 0.987893
vt 0.000174 0.000314
vt 0.011671 0.000322
vt 0.000158 0.011820
vt 0.999840 0.000240
vt 0.999851 0.011756
vt 0.988322 0.000251
vt 0.999809 0.999697
vt 0.988277 0.999655
vt 0.999832 0.988230
vt 0.000296 0.999450
vt 0.000174 0.000314
vt 0.999840 0.000240
vt 0.999809 0.999697
s 0
f 2/4/1 4/10/1 1/1/1
f 6/14/2 1/2/2 5/13/2
f 7/15/3 2/6/3 6/14/3
f 8/16/4 3/9/4 7/15/4
f 5/13/5 4/12/5 8/16/5
f 2/4/1 3/7/1 4/10/1
f 6/14/2 2/5/2 1/2/2
f 7/15/3 3/8/3 2/6/3
f 8/16/4 4/11/4 3/9/4
f 5/13/5 1/3/5 4/12/5
