# Blender 3.3.1
# www.blender.org
o Un_viejo_y_un_fraile
v 20.140720 8.065341 49.346596
v 20.140820 22.321331 49.346596
v 26.676394 22.321331 49.346596
v 26.676291 8.065331 49.346596
v 20.140720 8.065341 49.445595
v 20.140820 22.321331 49.445595
v 26.676394 22.321331 49.445595
v 26.676291 8.065331 49.445595
vn -0.0000 -0.0000 -1.0000
vn -1.0000 -0.0000 -0.0000
vn -0.0000 1.0000 -0.0000
vn 1.0000 -0.0000 -0.0000
vn -0.0000 -1.0000 -0.0000
vt 0.999812 0.000140
vt 0.993066 0.000140
vt 0.999789 0.006895
vt 0.999776 0.999884
vt 0.993033 0.999879
vt 0.999750 0.993134
vt 0.000191 0.999907
vt 0.000200 0.993149
vt 0.006937 0.999910
vt 0.000179 0.000153
vt 0.006947 0.000151
vt 0.000166 0.006921
vt 0.999812 0.000140
vt 0.999776 0.999884
vt 0.000191 0.999907
vt 0.000179 0.000153
s 0
f 2/4/1 4/10/1 1/1/1
f 6/14/2 1/2/2 5/13/2
f 7/15/3 2/6/3 6/14/3
f 8/16/4 3/9/4 7/15/4
f 5/13/5 4/12/5 8/16/5
f 2/4/1 3/7/1 4/10/1
f 6/14/2 2/5/2 1/2/2
f 7/15/3 3/8/3 2/6/3
f 8/16/4 4/11/4 3/9/4
f 5/13/5 1/3/5 4/12/5
