# Blender 3.3.1
# www.blender.org
o 6.el_aquelarre
v 11.222621 2.246683 3.426890
v 11.222621 2.246685 -0.909310
v 11.222621 0.821084 -0.909310
v 11.222621 0.821083 3.426891
v 11.232524 2.246683 3.426890
v 11.232524 2.246685 -0.909310
v 11.232524 0.821084 -0.909310
v 11.232524 0.821083 3.426891
vn -1.0000 -0.0000 -0.0000
vn -0.0000 1.0000 -0.0000
vn -0.0000 -0.0000 -1.0000
vn -0.0000 -1.0000 -0.0000
vn -0.0000 -0.0000 1.0000
vt 0.999932 0.999767
vt 0.999926 0.997435
vt 0.997612 0.999780
vt 0.001067 0.997583
vt 0.001074 0.995251
vt 0.003395 0.997589
vt 0.000937 0.002749
vt 0.003258 0.002783
vt 0.000934 0.005038
vt 0.999306 0.003261
vt 0.999294 0.005613
vt 0.996999 0.003286
vt 0.999932 0.999767
vt 0.001067 0.997583
vt 0.000937 0.002749
vt 0.999306 0.003261
s 0
f 1/1/1 3/7/1 4/10/1
f 6/14/2 1/2/2 5/13/2
f 7/15/3 2/6/3 6/14/3
f 8/16/4 3/9/4 7/15/4
f 5/13/5 4/12/5 8/16/5
f 1/1/1 2/4/1 3/7/1
f 6/14/2 2/5/2 1/2/2
f 7/15/3 3/8/3 2/6/3
f 8/16/4 4/11/4 3/9/4
f 5/13/5 1/3/5 4/12/5
