# Blender 3.3.1
# www.blender.org
o 7.hombres_leyendo
v -6.299818 0.894344 0.976689
v -6.299818 2.141743 0.976689
v -5.646261 2.141743 0.976689
v -5.646262 0.894343 0.976689
v -6.299818 0.894344 0.986589
v -6.299818 2.141743 0.986589
v -5.646261 2.141743 0.986589
v -5.646262 0.894343 0.986589
vn -0.0000 -0.0000 -1.0000
vn -1.0000 -0.0000 -0.0000
vn -0.0000 1.0000 -0.0000
vn 1.0000 -0.0000 -0.0000
vn -0.0000 -1.0000 -0.0000
vt 0.999788 0.000119
vt 0.992168 0.000097
vt 0.999832 0.007819
vt 0.999579 0.999784
vt 0.991889 0.999807
vt 0.999505 0.992083
vt 0.000537 0.999734
vt 0.000504 0.992064
vt 0.008248 0.999708
vt 0.000171 0.000092
vt 0.007910 0.000111
vt 0.000134 0.007792
vt 0.999788 0.000119
vt 0.999579 0.999784
vt 0.000537 0.999734
vt 0.000171 0.000092
s 0
f 2/4/1 4/10/1 1/1/1
f 6/14/2 1/2/2 5/13/2
f 7/15/3 2/6/3 6/14/3
f 8/16/4 3/9/4 7/15/4
f 5/13/5 4/12/5 8/16/5
f 2/4/1 3/7/1 4/10/1
f 6/14/2 2/5/2 1/2/2
f 7/15/3 3/8/3 2/6/3
f 8/16/4 4/11/4 3/9/4
f 5/13/5 1/3/5 4/12/5
