# Blender 3.3.1
# www.blender.org
o 9.la_romeria_de_san_isidro
v -3.569556 2.169463 3.364520
v -3.569556 0.783463 3.364520
v -3.559654 0.783463 3.364520
v -3.559654 2.169463 3.364520
v -3.569556 0.783466 -0.971681
v -3.559654 0.783466 -0.971681
v -3.569556 2.169465 -0.971680
v -3.559654 2.169465 -0.971680
vn -0.0000 -0.0000 1.0000
vn -0.0000 -1.0000 -0.0000
vn -0.0000 -0.0000 -1.0000
vn -0.0000 1.0000 -0.0000
vn 1.0000 -0.0000 -0.0000
vt 0.000048 0.999774
vt 0.000142 0.000212
vt 0.000161 0.000432
vt 0.002404 0.000432
vt 0.000142 0.002455
vt 0.000142 0.000165
vt 0.002310 0.999777
vt 0.000048 0.997530
vt 0.000048 0.999744
vt 0.999949 0.000427
vt 0.999956 0.000312
vt 0.999956 0.002555
vt 0.997706 0.000427
vt 0.999956 0.000165
vt 0.999958 0.999785
vt 0.999956 0.999891
vt 0.997715 0.999785
vt 0.999956 0.997607
s 0
f 2/3/1 4/7/1 1/1/1
f 5/11/2 3/5/2 2/2/2
f 7/15/3 6/13/3 5/10/3
f 1/1/4 8/18/4 7/15/4
f 4/9/5 6/14/5 8/16/5
f 2/3/1 3/4/1 4/7/1
f 5/11/2 6/12/2 3/5/2
f 7/15/3 8/17/3 6/13/3
f 1/1/4 4/8/4 8/18/4
f 4/9/5 3/6/5 6/14/5
