# Blender 3.3.1
# www.blender.org
o pared_3.a.o
v -3.626664 0.096148 2.485122
v -3.626663 2.966344 2.485122
v -3.626662 2.966344 4.967993
v -3.626663 0.096148 4.967993
v -3.606800 2.966344 2.485122
v -3.606800 2.966344 4.967993
v -3.606800 2.936549 2.485122
v -3.606800 2.936549 4.967993
v -3.586937 2.936549 4.967993
v -3.586938 2.936549 2.485122
v -3.586938 2.956413 2.485122
v -3.586937 2.956412 4.967993
v -3.577006 2.956413 2.485122
v -3.577006 2.956412 4.967993
v -3.577006 2.976275 4.967993
v -3.577006 2.976275 2.485122
v -3.616732 0.096148 4.967993
v -3.616732 0.096148 2.485122
v -3.616732 -0.003167 2.485122
v -3.616732 -0.003167 4.967993
vn 1.0000 -0.0000 -0.0000
vn -0.0000 -1.0000 -0.0000
vn -1.0000 -0.0000 -0.0000
vn -0.0000 1.0000 -0.0000
vt 0.977266 0.022982
vt 0.105106 0.148835
vt 0.977266 0.975281
vt 0.128013 0.972542
vt 0.153481 0.975281
vt 0.128013 0.148758
vt 0.153481 0.022982
vt 0.105106 0.972620
vt 0.121423 0.972542
vt 0.140658 0.972180
vt 0.140658 0.148396
vt 0.121423 0.148758
vt 0.130765 0.972180
vt 0.121423 0.972542
vt 0.130765 0.148396
vt 0.121423 0.148758
vt 0.114833 0.148758
vt 0.042852 0.972867
vt 0.042852 0.149082
vt 0.114833 0.972542
vt 0.049448 0.149082
vt 0.113526 0.972542
vt 0.113526 0.148758
vt 0.049447 0.972867
vt 0.110231 0.972542
vt 0.050979 0.149082
vt 0.110231 0.148758
vt 0.050979 0.972867
vt 0.057566 0.972867
vt 0.057566 0.149082
vt 0.101811 0.972620
vt 0.100027 0.972620
vt 0.101811 0.148835
vt 0.100027 0.148835
vt 0.067076 0.148835
vt 0.067076 0.972620
s 0
f 2/3/1 4/7/1 1/1/1
f 6/12/2 2/4/2 5/9/2
f 5/10/3 8/15/3 6/11/3
f 8/16/2 10/20/2 9/17/2
f 11/21/1 9/18/1 10/19/1
f 11/22/2 14/27/2 12/23/2
f 14/28/1 16/30/1 15/29/1
f 4/8/4 18/33/4 1/2/4
f 18/34/1 20/36/1 19/35/1
f 2/3/1 3/5/1 4/7/1
f 6/12/2 3/6/2 2/4/2
f 5/10/3 7/13/3 8/15/3
f 8/16/2 7/14/2 10/20/2
f 11/21/1 12/24/1 9/18/1
f 11/22/2 13/25/2 14/27/2
f 14/28/1 13/26/1 16/30/1
f 4/8/4 17/31/4 18/33/4
f 18/34/1 17/32/1 20/36/1
