# Blender 3.3.1
# www.blender.org
o posicion00
v -0.277325 -0.005800 -0.000000
v -0.277325 0.035044 -0.000000
v -0.271996 -0.005800 -0.054103
v -0.271996 0.035044 -0.054103
v -0.256215 -0.005800 -0.106128
v -0.256215 0.035044 -0.106128
v -0.230587 -0.005800 -0.154073
v -0.230587 0.035044 -0.154073
v -0.196098 -0.005800 -0.196098
v -0.196098 0.035044 -0.196098
v -0.154073 -0.005800 -0.230587
v -0.154073 0.035044 -0.230587
v -0.106128 -0.005800 -0.256215
v -0.106128 0.035044 -0.256215
v -0.054103 -0.005800 -0.271996
v -0.054103 0.035044 -0.271996
v 0.000000 -0.005800 -0.277325
v 0.000000 0.035044 -0.277325
v 0.054103 -0.005800 -0.271996
v 0.054103 0.035044 -0.271996
v 0.106128 -0.005800 -0.256215
v 0.106128 0.035044 -0.256215
v 0.154073 -0.005800 -0.230587
v 0.154073 0.035044 -0.230587
v 0.196098 -0.005800 -0.196098
v 0.196098 0.035044 -0.196098
v 0.230587 -0.005800 -0.154073
v 0.230587 0.035044 -0.154073
v 0.256215 -0.005800 -0.106128
v 0.256215 0.035044 -0.106128
v 0.271996 -0.005800 -0.054103
v 0.271996 0.035044 -0.054103
v 0.277325 -0.005800 0.000000
v 0.277325 0.035044 0.000000
v 0.271996 -0.005800 0.054103
v 0.271996 0.035044 0.054103
v 0.256215 -0.005800 0.106128
v 0.256215 0.035044 0.106128
v 0.230587 -0.005800 0.154073
v 0.230587 0.035044 0.154073
v 0.196098 -0.005800 0.196098
v 0.196098 0.035044 0.196098
v 0.154073 -0.005800 0.230587
v 0.154073 0.035044 0.230587
v 0.106128 -0.005800 0.256215
v 0.106128 0.035044 0.256215
v 0.054103 -0.005800 0.271996
v 0.054103 0.035044 0.271996
v -0.000000 -0.005800 0.277325
v -0.000000 0.035044 0.277325
v -0.054103 -0.005800 0.271996
v -0.054103 0.035044 0.271996
v -0.106128 -0.005800 0.256215
v -0.106128 0.035044 0.256215
v -0.154073 -0.005800 0.230587
v -0.154073 0.035044 0.230587
v -0.196098 -0.005800 0.196098
v -0.196098 0.035044 0.196098
v -0.230587 -0.005800 0.154073
v -0.230587 0.035044 0.154073
v -0.256215 -0.005800 0.106128
v -0.256215 0.035044 0.106128
v -0.271996 -0.005800 0.054103
v -0.271996 0.035044 0.054103
vn -0.9952 -0.0000 -0.0980
vn -0.9569 -0.0000 -0.2903
vn -0.8819 -0.0000 -0.4714
vn -0.7730 -0.0000 -0.6344
vn -0.6344 -0.0000 -0.7730
vn -0.4714 -0.0000 -0.8819
vn -0.2903 -0.0000 -0.9569
vn -0.0980 -0.0000 -0.9952
vn 0.0980 -0.0000 -0.9952
vn 0.2903 -0.0000 -0.9569
vn 0.4714 -0.0000 -0.8819
vn 0.6344 -0.0000 -0.7730
vn 0.7730 -0.0000 -0.6344
vn 0.8819 -0.0000 -0.4714
vn 0.9569 -0.0000 -0.2903
vn 0.9952 -0.0000 -0.0980
vn 0.9952 -0.0000 0.0980
vn 0.9569 -0.0000 0.2903
vn 0.8819 -0.0000 0.4714
vn 0.7730 -0.0000 0.6344
vn 0.6344 -0.0000 0.7730
vn 0.4714 -0.0000 0.8819
vn 0.2903 -0.0000 0.9569
vn 0.0980 -0.0000 0.9952
vn -0.0980 -0.0000 0.9952
vn -0.2903 -0.0000 0.9569
vn -0.4714 -0.0000 0.8819
vn -0.6344 -0.0000 0.7730
vn -0.7730 -0.0000 0.6344
vn -0.8819 -0.0000 0.4714
vn -0.0000 1.0000 -0.0000
vn -0.9569 -0.0000 0.2903
vn -0.9952 -0.0000 0.0980
vt 1.000000 0.013040
vt 0.000000 0.013040
vt 1.000000 0.083681
vt 0.437584 0.992038
vt 0.000000 0.083681
vt 0.968750 0.013040
vt 0.968750 0.083681
vt 0.521355 0.983788
vt 0.937500 0.013040
vt 0.937500 0.083681
vt 0.601908 0.959352
vt 0.906250 0.013040
vt 0.906250 0.083681
vt 0.676145 0.919672
vt 0.875000 0.013040
vt 0.875000 0.083681
vt 0.741215 0.866270
vt 0.843750 0.013040
vt 0.843750 0.083681
vt 0.794616 0.801201
vt 0.812500 0.013040
vt 0.812500 0.083681
vt 0.834297 0.726963
vt 0.781250 0.013040
vt 0.781250 0.083681
vt 0.858732 0.646411
vt 0.750000 0.013040
vt 0.750000 0.083681
vt 0.866983 0.562639
vt 0.718750 0.013040
vt 0.718750 0.083681
vt 0.858732 0.478868
vt 0.687500 0.013040
vt 0.687500 0.083681
vt 0.834297 0.398316
vt 0.656250 0.013040
vt 0.656250 0.083681
vt 0.794616 0.324078
vt 0.625000 0.013040
vt 0.625000 0.083681
vt 0.741215 0.259009
vt 0.593750 0.013040
vt 0.593750 0.083681
vt 0.676145 0.205607
vt 0.562500 0.013040
vt 0.562500 0.083681
vt 0.601908 0.165927
vt 0.531250 0.013040
vt 0.531250 0.083681
vt 0.521355 0.141491
vt 0.500000 0.013040
vt 0.500000 0.083681
vt 0.437584 0.133240
vt 0.468750 0.013040
vt 0.468750 0.083681
vt 0.353812 0.141491
vt 0.437500 0.013040
vt 0.437500 0.083681
vt 0.273260 0.165927
vt 0.406250 0.013040
vt 0.406250 0.083681
vt 0.199022 0.205607
vt 0.375000 0.013040
vt 0.375000 0.083681
vt 0.133953 0.259009
vt 0.343750 0.013040
vt 0.343750 0.083681
vt 0.080552 0.324078
vt 0.312500 0.013040
vt 0.312500 0.083681
vt 0.040871 0.398316
vt 0.281250 0.013040
vt 0.281250 0.083681
vt 0.016436 0.478868
vt 0.250000 0.013040
vt 0.250000 0.083681
vt 0.008185 0.562639
vt 0.218750 0.013040
vt 0.218750 0.083681
vt 0.016436 0.646411
vt 0.187500 0.013040
vt 0.187500 0.083681
vt 0.040871 0.726963
vt 0.156250 0.013040
vt 0.156250 0.083681
vt 0.080552 0.801201
vt 0.125000 0.013040
vt 0.125000 0.083681
vt 0.133953 0.866270
vt 0.093750 0.013040
vt 0.093750 0.083681
vt 0.199022 0.919672
vt 0.062500 0.013040
vt 0.273260 0.959352
vt 0.062500 0.083681
vt 0.031250 0.013040
vt 0.353812 0.983788
vt 0.031250 0.083681
s 0
f 2/3/1 3/6/1 1/1/1
f 4/7/2 5/9/2 3/6/2
f 6/10/3 7/12/3 5/9/3
f 8/13/4 9/15/4 7/12/4
f 10/16/5 11/18/5 9/15/5
f 12/19/6 13/21/6 11/18/6
f 14/22/7 15/24/7 13/21/7
f 16/25/8 17/27/8 15/24/8
f 18/28/9 19/30/9 17/27/9
f 20/31/10 21/33/10 19/30/10
f 22/34/11 23/36/11 21/33/11
f 24/37/12 25/39/12 23/36/12
f 26/40/13 27/42/13 25/39/13
f 28/43/14 29/45/14 27/42/14
f 30/46/15 31/48/15 29/45/15
f 32/49/16 33/51/16 31/48/16
f 34/52/17 35/54/17 33/51/17
f 36/55/18 37/57/18 35/54/18
f 38/58/19 39/60/19 37/57/19
f 40/61/20 41/63/20 39/60/20
f 42/64/21 43/66/21 41/63/21
f 44/67/22 45/69/22 43/66/22
f 46/70/23 47/72/23 45/69/23
f 48/73/24 49/75/24 47/72/24
f 50/76/25 51/78/25 49/75/25
f 52/79/26 53/81/26 51/78/26
f 54/82/27 55/84/27 53/81/27
f 56/85/28 57/87/28 55/84/28
f 58/88/29 59/90/29 57/87/29
f 60/91/30 61/93/30 59/90/30
f 38/59/31 22/35/31 6/11/31
f 62/95/32 63/96/32 61/93/32
f 64/98/33 1/2/33 63/96/33
f 2/3/1 4/7/1 3/6/1
f 4/7/2 6/10/2 5/9/2
f 6/10/3 8/13/3 7/12/3
f 8/13/4 10/16/4 9/15/4
f 10/16/5 12/19/5 11/18/5
f 12/19/6 14/22/6 13/21/6
f 14/22/7 16/25/7 15/24/7
f 16/25/8 18/28/8 17/27/8
f 18/28/9 20/31/9 19/30/9
f 20/31/10 22/34/10 21/33/10
f 22/34/11 24/37/11 23/36/11
f 24/37/12 26/40/12 25/39/12
f 26/40/13 28/43/13 27/42/13
f 28/43/14 30/46/14 29/45/14
f 30/46/15 32/49/15 31/48/15
f 32/49/16 34/52/16 33/51/16
f 34/52/17 36/55/17 35/54/17
f 36/55/18 38/58/18 37/57/18
f 38/58/19 40/61/19 39/60/19
f 40/61/20 42/64/20 41/63/20
f 42/64/21 44/67/21 43/66/21
f 44/67/22 46/70/22 45/69/22
f 46/70/23 48/73/23 47/72/23
f 48/73/24 50/76/24 49/75/24
f 50/76/25 52/79/25 51/78/25
f 52/79/26 54/82/26 53/81/26
f 54/82/27 56/85/27 55/84/27
f 56/85/28 58/88/28 57/87/28
f 58/88/29 60/91/29 59/90/29
f 60/91/30 62/95/30 61/93/30
f 6/11/31 4/8/31 2/4/31
f 2/4/31 64/97/31 62/94/31
f 62/94/31 60/92/31 58/89/31
f 58/89/31 56/86/31 54/83/31
f 54/83/31 52/80/31 50/77/31
f 50/77/31 48/74/31 46/71/31
f 46/71/31 44/68/31 42/65/31
f 42/65/31 40/62/31 38/59/31
f 38/59/31 36/56/31 34/53/31
f 34/53/31 32/50/31 30/47/31
f 30/47/31 28/44/31 26/41/31
f 26/41/31 24/38/31 22/35/31
f 22/35/31 20/32/31 18/29/31
f 18/29/31 16/26/31 14/23/31
f 14/23/31 12/20/31 10/17/31
f 10/17/31 8/14/31 6/11/31
f 6/11/31 2/4/31 62/94/31
f 62/94/31 58/89/31 54/83/31
f 54/83/31 50/77/31 46/71/31
f 46/71/31 42/65/31 38/59/31
f 38/59/31 34/53/31 30/47/31
f 30/47/31 26/41/31 22/35/31
f 22/35/31 18/29/31 14/23/31
f 14/23/31 10/17/31 6/11/31
f 6/11/31 62/94/31 54/83/31
f 54/83/31 46/71/31 38/59/31
f 38/59/31 30/47/31 22/35/31
f 22/35/31 14/23/31 6/11/31
f 6/11/31 54/83/31 38/59/31
f 62/95/32 64/98/32 63/96/32
f 64/98/33 2/5/33 1/2/33
