# Blender 3.3.1
# www.blender.org
o techo_1.c
v 38.218914 32.047005 -15.178742
v 13.877178 32.245632 -15.178741
v 13.390346 32.245632 -15.178741
v 13.390346 32.047005 -15.178742
v 13.877178 32.047005 -15.178742
v 38.218914 32.245632 -15.178741
v 13.877178 32.245628 -0.180175
v 13.390346 32.245628 -0.180175
v 38.218914 32.245628 0.022508
v 13.390346 32.245628 0.022508
v 13.877178 32.047005 -14.976060
v 13.390346 32.047005 -14.976060
v 13.390346 29.765343 -14.976060
v 13.552624 29.762760 -14.976060
v 14.201734 29.762760 -14.976060
v 38.218914 32.047005 -14.976060
v 13.390346 29.762760 -15.381426
v 38.218914 29.762760 -15.178742
v 38.218914 29.762760 -15.381426
v 13.390346 29.862076 -15.381426
v 13.552624 29.862076 -15.381426
v 38.218914 29.862076 -15.381426
v 13.390346 29.862076 -15.482768
v 38.218914 29.862076 -15.482768
v 13.390346 29.762760 -15.482768
v 38.218914 29.762760 -15.482768
v 13.390346 29.762762 -21.188705
v 13.390346 29.762762 -24.806196
v 38.218914 29.762762 -24.806196
v 38.218914 29.762760 -14.976060
vn -0.0000 -0.0000 1.0000
vn -0.0000 -1.0000 -0.0000
vn -0.0413 -0.9991 0.0064
vn -0.0000 -0.0000 -1.0000
vt 0.989817 0.994422
vt 0.997127 0.098573
vt 0.022136 0.656120
vt 0.997127 0.080657
vt 0.004912 0.656120
vt 0.989817 0.080657
vt 0.989817 0.098573
vt 0.997127 0.994422
vt 0.883337 0.656120
vt 0.022136 0.125479
vt 0.004912 0.125479
vt 0.883337 0.118308
vt 0.004912 0.118308
vt 0.989817 0.098573
vt 0.989817 0.080657
vt 0.004912 0.088527
vt 0.905846 0.080657
vt 0.905751 0.086629
vt 0.010654 0.088527
vt 0.905751 0.110518
vt 0.033619 0.088527
vt 0.989817 0.994422
vt 0.004912 0.102868
vt 0.891042 0.080657
vt 0.883337 0.095698
vt 0.883337 0.102868
vt 0.891042 0.994422
vt 0.894697 0.080657
vt 0.004912 0.072823
vt 0.894697 0.086629
vt 0.010654 0.072823
vt 0.894697 0.994422
vt 0.883337 0.072823
vt 0.909406 0.080657
vt 0.004912 0.076408
vt 0.883337 0.076408
vt 0.909406 0.994422
vt 0.905751 0.080657
vt 0.004912 0.666876
vt 0.905751 0.994422
vt 0.883337 0.666876
vt 0.004912 0.868748
vt 0.004912 0.996733
vt 0.883337 0.996733
vt 0.883337 0.088527
vt 0.905751 0.994422
s 0
f 2/2/1 4/6/1 5/7/1
f 1/1/1 6/8/1 2/2/1
f 7/10/2 3/5/2 2/3/2
f 7/10/2 6/9/2 9/12/2
f 10/13/2 7/10/2 9/12/2
f 13/17/1 15/20/1 11/14/1
f 17/23/3 14/19/3 13/16/3
f 15/21/2 17/23/2 18/25/2
f 17/23/2 19/26/2 18/25/2
f 17/24/4 21/30/4 19/27/4
f 21/31/2 23/35/2 22/33/2
f 19/27/4 21/30/4 22/32/4
f 23/35/2 24/36/2 22/33/2
f 25/38/1 24/37/1 23/34/1
f 25/38/1 26/40/1 24/37/1
f 26/41/2 25/39/2 27/42/2
f 27/42/2 29/44/2 26/41/2
f 18/25/2 30/45/2 15/21/2
f 15/20/1 30/46/1 16/22/1
f 5/7/1 1/1/1 2/2/1
f 2/2/1 3/4/1 4/6/1
f 2/3/2 6/9/2 7/10/2
f 7/10/2 8/11/2 3/5/2
f 10/13/2 8/11/2 7/10/2
f 11/14/1 12/15/1 13/17/1
f 13/17/1 14/18/1 15/20/1
f 15/20/1 16/22/1 11/14/1
f 15/21/2 14/19/2 17/23/2
f 17/24/4 20/28/4 21/30/4
f 21/31/2 20/29/2 23/35/2
f 27/42/2 28/43/2 29/44/2
