# Blender 3.3.1
# www.blender.org
o techo_1.a
v -6.459001 3.204701 -5.475844
v -6.459001 3.224564 -5.475844
v -6.459001 3.224564 -3.975987
v -6.459001 3.224564 -3.955719
v -6.459001 3.204701 -3.955719
v -6.459001 3.204701 -5.455576
v -4.969287 3.204701 -5.475844
v -4.969287 3.224564 -5.475844
v -4.969287 3.224564 -3.955719
v -6.439138 3.204701 -5.455576
v -4.969287 3.204701 -5.455576
v -6.439138 3.204701 -3.955719
v -6.459001 2.976277 -3.955719
v -6.439138 2.976277 -3.955719
v -4.969287 2.976277 -5.496112
v -4.969287 2.976277 -5.475844
v -4.969287 2.976277 -5.455576
v -6.439138 2.976277 -5.455576
v -6.478864 2.976277 -3.955719
v -6.478864 2.976277 -5.496112
v -6.478864 2.986208 -3.955719
v -6.478864 2.986209 -5.496112
v -6.488795 2.976277 -3.955719
v -6.488795 2.986208 -3.955719
v -6.488795 2.976277 -5.506247
v -6.488795 2.986209 -5.506247
v -7.452144 2.976277 -3.955719
v -7.452144 2.976278 -6.438590
v -4.969287 2.976278 -6.438590
v -4.969287 2.976277 -5.506247
v -4.969287 2.986209 -5.506247
v -4.969287 2.986209 -5.496112
vn 1.0000 -0.0000 -0.0000
vn -0.0000 -0.0000 1.0000
vn -0.0000 -1.0000 -0.0000
vn -1.0000 -0.0000 -0.0000
vn -0.0000 -0.0000 -1.0000
vt 0.960463 0.058544
vt 0.972220 0.539248
vt 0.966918 0.058544
vt 0.978675 0.539248
vt 0.504039 0.523210
vt 0.966917 0.536208
vt 0.504039 0.045546
vt 0.966917 0.542663
vt 0.504039 0.039092
vt 0.960463 0.542663
vt 0.960463 0.064999
vt 0.972220 0.055129
vt 0.978675 0.055129
vt 0.019921 0.523210
vt 0.019921 0.039092
vt 0.501929 0.969089
vt 0.490201 0.970396
vt 0.979592 0.969089
vt 0.012538 0.970396
vt 0.522946 0.057772
vt 0.516491 0.057772
vt 0.012538 0.896164
vt 0.492520 0.027170
vt 0.038827 0.548346
vt 0.038827 0.541891
vt 0.038827 0.535436
vt 0.979592 0.894857
vt 0.501929 0.894857
vt 0.516491 0.535436
vt 0.490201 0.896164
vt 0.529401 0.057772
vt 0.985862 0.015231
vt 0.495289 0.015231
vt 0.529401 0.548346
vt 0.983094 0.027170
vt 0.985862 0.018459
vt 0.539224 0.065467
vt 0.495289 0.018459
vt 0.983094 0.030398
vt 0.539224 0.556040
vt 0.943157 0.543030
vt 0.591805 0.090143
vt 0.946385 0.543030
vt 0.542452 0.065467
vt 0.934550 0.544796
vt 0.943157 0.049229
vt 0.591805 0.583945
vt 0.946385 0.049229
vt 0.937778 0.544796
vt 0.542452 0.559268
vt 0.904869 0.090143
vt 0.904869 0.880871
vt 0.098004 0.880871
vt 0.098004 0.583945
vt 0.934551 0.050995
vt 0.937778 0.050995
vt 0.048651 0.559268
vt 0.492520 0.030398
vt 0.048651 0.556040
s 0
f 3/6/1 5/10/1 6/11/1
f 8/13/2 1/2/2 7/12/2
f 3/7/3 8/14/3 9/15/3
f 18/29/3 13/20/3 20/34/3
f 17/27/2 10/16/2 18/28/2
f 14/22/1 10/17/1 12/19/1
f 19/32/4 22/38/4 20/33/4
f 25/46/1 24/43/1 23/41/1
f 28/52/3 30/54/3 25/47/3
f 30/55/2 26/49/2 25/45/2
f 20/35/5 32/58/5 15/23/5
f 22/40/3 24/44/3 26/50/3
f 6/11/1 1/1/1 2/3/1
f 3/6/1 4/8/1 5/10/1
f 6/11/1 2/3/1 3/6/1
f 8/13/2 2/4/2 1/2/2
f 9/15/3 4/9/3 3/7/3
f 3/7/3 2/5/3 8/14/3
f 20/34/3 15/24/3 16/25/3
f 16/25/3 17/26/3 18/29/3
f 18/29/3 14/21/3 13/20/3
f 13/20/3 19/31/3 20/34/3
f 20/34/3 16/25/3 18/29/3
f 17/27/2 11/18/2 10/16/2
f 14/22/1 18/30/1 10/17/1
f 19/32/4 21/36/4 22/38/4
f 25/46/1 26/48/1 24/43/1
f 25/47/3 23/42/3 27/51/3
f 28/52/3 29/53/3 30/54/3
f 25/47/3 27/51/3 28/52/3
f 30/55/2 31/56/2 26/49/2
f 20/35/5 22/39/5 32/58/5
f 26/50/3 31/57/3 32/59/3
f 22/40/3 21/37/3 24/44/3
f 26/50/3 32/59/3 22/40/3
