# Blender 3.3.1
# www.blender.org
mtllib Pared 2.mtl
o pared_5
v 98.425201 9.842522 -0.000015
v 196.850403 108.267723 0.000000
v 196.850403 9.842522 0.000000
v 98.425201 108.267723 -0.000015
vn -0.0000 -0.0000 -1.0000
vt 0.502282 0.510637
vt 0.027894 0.985024
vt 0.027894 0.510637
vt 0.502282 0.985024
s 0
usemtl material
f 1/1/1 2/2/1 3/3/1
f 2/2/1 1/1/1 4/4/1
o pared_6
v 0.000000 9.842522 -0.000015
v 98.425201 108.267723 0.000000
v 98.425201 9.842522 0.000000
v 0.000000 108.267723 -0.000015
vn -0.0000 -0.0000 -1.0000
vt 0.976670 0.510637
vt 0.502282 0.985024
vt 0.502282 0.510637
vt 0.976670 0.985024
s 0
usemtl material
f 5/5/2 6/6/2 7/7/2
f 6/6/2 5/5/2 8/8/2
o pared_8
v -0.000016 9.842522 -196.850403
v 0.000000 108.267723 -98.425201
v 0.000000 9.842522 -98.425201
v -0.000016 108.267723 -196.850403
vn 1.0000 -0.0000 -0.0000
vt 0.974928 0.021410
vt 0.500540 0.495797
vt 0.500540 0.021410
vt 0.974928 0.495797
s 0
usemtl material
f 9/9/3 10/10/3 11/11/3
f 10/10/3 9/9/3 12/12/3
o pared_7
v -0.000016 9.842522 -98.425201
v 0.000000 108.267723 0.000000
v 0.000000 9.842522 0.000000
v -0.000016 108.267723 -98.425201
vn 1.0000 -0.0000 -0.0000
vt 0.500540 0.021410
vt 0.026153 0.495797
vt 0.026153 0.021410
vt 0.500540 0.495797
s 0
usemtl material
f 13/13/4 14/14/4 15/15/4
f 14/14/4 13/13/4 16/16/4
