# Blender 3.3.1
# www.blender.org
mtllib Pared 1.mtl
o pared_1
v 98.425201 9.842522 -196.850403
v 0.000000 108.267723 -196.850403
v 0.000000 9.842522 -196.850403
v 98.425201 108.267723 -196.850403
vn -0.0000 -0.0000 1.0000
vt 0.503776 0.512402
vt 0.027988 0.988190
vt 0.027988 0.512402
vt 0.503776 0.988190
s 0
usemtl material
f 1/1/1 2/2/1 3/3/1
f 2/2/1 1/1/1 4/4/1
o pared_3
v 196.850388 9.842522 -98.425201
v 196.850403 108.267723 -196.850403
v 196.850403 9.842522 -196.850403
v 196.850388 108.267723 -98.425201
vn -1.0000 -0.0000 -0.0000
vt 0.503025 0.017264
vt 0.027238 0.493052
vt 0.027238 0.017264
vt 0.503025 0.493052
s 0
usemtl material
f 5/5/2 6/6/2 7/7/2
f 6/6/2 5/5/2 8/8/2
o pared_2
v 196.850403 9.842522 -196.850403
v 98.425201 108.267723 -196.850403
v 98.425201 9.842522 -196.850403
v 196.850403 108.267723 -196.850403
vn -0.0000 -0.0000 1.0000
vt 0.979563 0.512402
vt 0.503776 0.988190
vt 0.503776 0.512402
vt 0.979563 0.988190
s 0
usemtl material
f 9/9/3 10/10/3 11/11/3
f 10/10/3 9/9/3 12/12/3
o pared_4
v 196.850388 9.842522 0.000000
v 196.850403 108.267723 -98.425201
v 196.850403 9.842522 -98.425201
v 196.850388 108.267723 0.000000
vn -1.0000 -0.0000 -0.0000
vt 0.978813 0.017264
vt 0.503025 0.493052
vt 0.503025 0.017264
vt 0.978813 0.493052
s 0
usemtl material
f 13/13/4 14/14/4 15/15/4
f 14/14/4 13/13/4 16/16/4
