# Blender 3.3.1
# www.blender.org
mtllib Techo.mtl
o techo_4
v 98.425201 127.952759 -39.370079
v 39.370079 127.952759 -98.425201
v 39.370079 127.952759 -39.370079
v 98.425201 127.952759 -98.425201
v 39.370079 127.952759 -98.425201
v 39.370079 118.110237 -39.370079
v 39.370079 127.952759 -39.370079
v 39.370079 118.110237 -98.425201
v 98.425201 118.110237 -39.370079
v 39.370079 127.952759 -39.370079
v 39.370079 118.110237 -39.370079
v 98.425201 127.952759 -39.370079
v 39.370079 118.110237 -39.370079
v 0.000000 118.110237 -98.425201
v 0.000000 118.110237 -39.370079
v 39.370079 118.110237 -98.425201
v 98.425201 118.110237 0.000000
v 39.370079 118.110237 -39.370079
v 39.370079 118.110237 0.000000
v 98.425201 118.110237 -39.370079
v 39.370079 118.110237 0.000000
v 0.000000 118.110237 -39.370079
v 0.000000 118.110237 0.000000
v 39.370079 118.110237 -39.370079
vn -0.0000 1.0000 -0.0000
vn -1.0000 -0.0000 -0.0000
vn -0.0000 -0.0000 1.0000
vt 0.500407 0.249597
vt 0.250154 0.499849
vt 0.250154 0.249597
vt 0.500407 0.499849
vt 0.500061 0.072494
vt 0.870503 0.010753
vt 0.870503 0.072494
vt 0.500061 0.010753
vt 0.935579 0.533001
vt 0.984229 0.812589
vt 0.937575 0.812922
vt 0.982233 0.532668
vt 0.250154 0.249597
vt 0.083319 0.499849
vt 0.083319 0.249597
vt 0.250154 0.499849
vt 0.500407 0.082762
vt 0.250154 0.249597
vt 0.250154 0.082762
vt 0.500407 0.249597
vt 0.250154 0.082762
vt 0.083319 0.249597
vt 0.083319 0.082762
vt 0.250154 0.249597
s 0
usemtl material
f 1/1/1 2/2/1 3/3/1
f 2/2/1 1/1/1 4/4/1
f 5/5/2 6/6/2 7/7/2
f 6/6/2 5/5/2 8/8/2
f 9/9/3 10/10/3 11/11/3
f 10/10/3 9/9/3 12/12/3
f 13/13/1 14/14/1 15/15/1
f 14/14/1 13/13/1 16/16/1
f 17/17/1 18/18/1 19/19/1
f 18/18/1 17/17/1 20/20/1
f 21/21/1 22/22/1 23/23/1
f 22/22/1 21/21/1 24/24/1
o techo_1
v 98.425201 127.952759 -98.425201
v 39.370079 127.952759 -157.480316
v 39.370079 127.952759 -98.425201
v 98.425201 127.952759 -157.480316
v 39.370079 127.952759 -157.480316
v 39.370079 118.110237 -98.425201
v 39.370079 127.952759 -98.425201
v 39.370079 118.110237 -157.480316
v 39.370079 127.952759 -157.480316
v 98.425201 118.110237 -157.480316
v 39.370079 118.110237 -157.480316
v 98.425201 127.952759 -157.480316
v 39.370079 118.110237 -98.425201
v 0.000000 118.110237 -157.480316
v 0.000000 118.110237 -98.425201
v 39.370079 118.110237 -157.480316
v 98.425201 118.110237 -157.480316
v 39.370079 118.110237 -196.850403
v 39.370079 118.110237 -157.480316
v 98.425201 118.110237 -196.850403
v 39.370079 118.110237 -157.480316
v 0.000000 118.110237 -196.850403
v 0.000000 118.110237 -157.480316
v 39.370079 118.110237 -157.480316
v 39.370079 118.110237 -196.850403
v 39.370079 127.952759 -127.952759
vn -0.0000 1.0000 -0.0000
vn -1.0000 -0.0000 -0.0000
vn -0.0000 -0.0000 -1.0000
vt 0.500407 0.499849
vt 0.250154 0.750102
vt 0.250154 0.499849
vt 0.500407 0.750102
vt 0.129619 0.072494
vt 0.500061 0.010753
vt 0.500061 0.072494
vt 0.129619 0.010753
vt 0.020384 0.814737
vt 0.065469 0.533668
vt 0.067181 0.814452
vt 0.018672 0.533953
vt 0.250154 0.499849
vt 0.083319 0.750102
vt 0.083319 0.499849
vt 0.250154 0.750102
vt 0.500407 0.750102
vt 0.250154 0.916936
vt 0.250154 0.750102
vt 0.500407 0.916936
vt 0.250154 0.750102
vt 0.083319 0.916936
vt 0.083319 0.750102
vt 0.250154 0.750102
vt 0.250154 0.916936
vt 0.250154 0.624975
s 0
usemtl material
f 25/25/4 26/26/4 50/50/4 27/27/4
f 26/26/4 25/25/4 28/28/4
f 29/29/5 30/30/5 31/31/5
f 30/30/5 29/29/5 32/32/5
f 33/33/6 34/34/6 35/35/6
f 34/34/6 33/33/6 36/36/6
f 37/37/4 38/38/4 39/39/4
f 38/38/4 37/37/4 40/40/4
f 41/41/4 42/42/4 43/43/4
f 42/42/4 41/41/4 44/44/4
f 45/45/4 46/46/4 47/47/4
f 46/46/4 48/48/4 49/49/4
o techo_2
v 157.480316 127.952759 -98.425201
v 98.425201 127.952759 -157.480316
v 98.425201 127.952759 -98.425201
v 157.480316 127.952759 -157.480316
v 157.480316 118.110237 -157.480316
v 157.480316 127.952759 -98.425201
v 157.480316 118.110237 -98.425201
v 157.480316 127.952759 -157.480316
v 98.425201 127.952759 -157.480316
v 157.480316 118.110237 -157.480316
v 98.425201 118.110237 -157.480316
v 157.480316 127.952759 -157.480316
v 196.850403 118.110237 -98.425201
v 157.480316 118.110237 -157.480316
v 157.480316 118.110237 -98.425201
v 196.850403 118.110237 -157.480316
v 157.480316 118.110237 -157.480316
v 98.425201 118.110237 -196.850403
v 98.425201 118.110237 -157.480316
v 157.480316 118.110237 -157.480316
v 157.480316 118.110237 -196.850403
v 196.850403 118.110237 -157.480316
v 157.480316 118.110237 -196.850403
v 157.480316 118.110237 -157.480316
v 196.850403 118.110237 -196.850403
vn -0.0000 1.0000 -0.0000
vn 1.0000 -0.0000 -0.0000
vn -0.0000 -0.0000 -1.0000
vt 0.750659 0.499849
vt 0.500407 0.750102
vt 0.500407 0.499849
vt 0.750659 0.750102
vt 0.814070 0.936482
vt 0.500916 0.984656
vt 0.500916 0.936482
vt 0.814070 0.984656
vt 0.018672 0.533953
vt 0.063758 0.252885
vt 0.065469 0.533668
vt 0.016961 0.253170
vt 0.917494 0.499849
vt 0.750659 0.750102
vt 0.750659 0.499849
vt 0.917494 0.750102
vt 0.750659 0.750102
vt 0.500407 0.916936
vt 0.500407 0.750102
vt 0.750659 0.750102
vt 0.750659 0.916936
vt 0.917494 0.750102
vt 0.750659 0.916936
vt 0.750659 0.750102
vt 0.917494 0.916936
s 0
usemtl material
f 51/51/7 52/52/7 53/53/7
f 52/52/7 51/51/7 54/54/7
f 55/55/8 56/56/8 57/57/8
f 56/56/8 55/55/8 58/58/8
f 59/59/9 60/60/9 61/61/9
f 60/60/9 59/59/9 62/62/9
f 63/63/7 64/64/7 65/65/7
f 64/64/7 63/63/7 66/66/7
f 67/67/7 68/68/7 69/69/7
f 68/68/7 70/70/7 71/71/7
f 72/72/7 73/73/7 74/74/7
f 73/73/7 72/72/7 75/75/7
o techo_3
v 157.480316 127.952759 -39.370079
v 98.425201 127.952759 -98.425201
v 98.425201 127.952759 -39.370079
v 157.480316 127.952759 -98.425201
v 157.480316 118.110237 -98.425201
v 157.480316 127.952759 -39.370079
v 157.480316 118.110237 -39.370079
v 157.480316 127.952759 -98.425201
v 157.480316 118.110237 -39.370079
v 98.425201 127.952759 -39.370079
v 98.425201 118.110237 -39.370079
v 157.480316 127.952759 -39.370079
v 196.850403 118.110237 -39.370079
v 157.480316 118.110237 -98.425201
v 157.480316 118.110237 -39.370079
v 196.850403 118.110237 -98.425201
v 157.480316 118.110237 0.000000
v 98.425201 118.110237 -39.370079
v 98.425201 118.110237 0.000000
v 157.480316 118.110237 -39.370079
v 196.850403 118.110237 0.000000
v 157.480316 118.110237 -39.370079
v 157.480316 118.110237 0.000000
v 196.850403 118.110237 -39.370079
v 127.952759 118.110237 0.000000
v 157.480316 127.952759 -68.897644
v 127.952759 127.952759 -39.370079
vn -0.0000 1.0000 -0.0000
vn 1.0000 -0.0000 -0.0000
vn -0.0000 -0.0000 1.0000
vt 0.750659 0.249597
vt 0.500407 0.499849
vt 0.500407 0.249597
vt 0.750659 0.499849
vt 0.500916 0.936482
vt 0.187762 0.984656
vt 0.187762 0.936482
vt 0.500916 0.984656
vt 0.933583 0.253079
vt 0.982233 0.532668
vt 0.935579 0.533001
vt 0.980237 0.252746
vt 0.917494 0.249597
vt 0.750659 0.499849
vt 0.750659 0.249597
vt 0.917494 0.499849
vt 0.750659 0.082762
vt 0.500407 0.249597
vt 0.500407 0.082762
vt 0.750659 0.249597
vt 0.917494 0.082762
vt 0.750659 0.249597
vt 0.750659 0.082762
vt 0.917494 0.249597
vt 0.625533 0.082762
vt 0.750659 0.374723
vt 0.981235 0.392707
s 0
usemtl material
f 76/76/10 77/77/10 78/78/10
f 77/77/10 76/76/10 101/101/10 79/79/10
f 80/80/11 81/81/11 82/82/11
f 81/81/11 80/80/11 83/83/11
f 84/84/12 85/85/12 86/86/12
f 85/85/12 84/84/12 87/87/12 102/102/12
f 88/88/10 89/89/10 90/90/10
f 89/89/10 88/88/10 91/91/10
f 92/92/10 93/93/10 94/94/10 100/100/10
f 93/93/10 92/92/10 95/95/10
f 96/96/10 97/97/10 98/98/10
f 97/97/10 96/96/10 99/99/10
